<?xml version="1.0" encoding="UTF-8"?>
<svg version="1.1" viewBox="0 0 24 24" xmlns="http://www.w3.org/2000/svg">
 <path d="m12 5e-7c6.648 0 12 5.352 12 12 0 6.648-5.352 12-12 12-6.648 0-12-5.352-12-12 0-6.648 5.352-12 12-12z" fill="#eff1f5" stroke-linecap="round" stroke-linejoin="round" stroke-width="6.5072" style="paint-order:stroke markers fill"/>
 <path d="m20.383 18.011h-4.4511c-1.3521 0-2.2647-0.99152-2.7267-2.9858h-0.05634c-1.1155 2.152-2.6816 3.2224-4.6534 3.2224-1.476 0-2.6591-0.55209-3.5492-1.6675-0.89011-1.1155-1.3295-2.5126-1.3295-4.2027 0-1.9718 0.50702-3.5492 1.5098-4.7773 1.0028-1.2281 2.3661-1.8478 4.09-1.8478 0.92391 0 1.7577 0.25915 2.4788 0.76617 0.7211 0.51829 1.2732 1.2394 1.6563 2.1746h0.04507l1.2732-2.7041h2.4112l-2.4112 5.9942c0.27041 1.3971 0.55209 2.3548 0.86758 2.8619 0.27041 0.50702 0.6535 0.76617 1.1267 0.76617h3.7187v1.5528zm-7.865-6.1294c-0.23661-1.2732-0.6197-2.2647-1.138-2.9407-0.50702-0.6873-1.1267-1.0253-1.8366-1.0253-0.92391 0-1.6675 0.41689-2.2196 1.2394-0.55209 0.83377-0.79997 1.8591-0.79997 3.0647 0 1.1042 0.21408 2.0168 0.69857 2.7605 0.47322 0.74364 1.1155 1.1042 1.9154 1.1042 0.67603 0 1.2957-0.32675 1.8478-0.94645 0.56336-0.64223 1.0253-1.5774 1.3971-2.8055z" fill="#1e1e2e" stroke-width="1.1267"/>
</svg>
